Coordinates
version=1
nRows=27
nColumns=38
inDegrees=no

Units are S.I. units (second, meters, Newtons, ...)
If the header above contains a line with 'inDegrees', this indicates whether rotational values are in degrees (yes) or radians (no).

endheader
time	pelvis_tilt	pelvis_list	pelvis_rotation	pelvis_tx	pelvis_ty	pelvis_tz	hip_flexion_r	hip_adduction_r	hip_rotation_r	knee_angle_r	ankle_angle_r	subtalar_angle_r	mtp_angle_r	hip_flexion_l	hip_adduction_l	hip_rotation_l	knee_angle_l	ankle_angle_l	subtalar_angle_l	mtp_angle_l	lumbar_extension	lumbar_bending	lumbar_rotation	arm_flex_r	arm_add_r	arm_rot_r	elbow_flex_r	pro_sup_r	wrist_flex_r	wrist_dev_r	arm_flex_l	arm_add_l	arm_rot_l	elbow_flex_l	pro_sup_l	wrist_flex_l	wrist_dev_l
48.43	0.364774	1.45466	1.27164	0.661973	0.199822	1.05303	0.20015	-0.0432935	-0.00619767	0.23396	-0.28187	0	0	0.188763	-0.12555	-0.253226	0.401472	-0.243633	0	0	-0.257078	0.0767732	-0.0617277	0.431172	-0.55682	1.23529	0.672525	0.443247	0	0	0.0298629	-0.289528	0.105811	0.533243	1.15603	0	0
48.44	0.370301	1.45849	1.26648	0.661959	0.200559	1.05343	0.192592	-0.0441089	-0.00732741	0.229578	-0.282963	0	0	0.180985	-0.124194	-0.252828	0.39607	-0.244241	0	0	-0.255733	0.0760338	-0.0624134	0.430923	-0.557219	1.23534	0.671652	0.444125	0	0	0.0291486	-0.2893	0.101908	0.532247	1.15722	0	0
48.45	0.374612	1.46176	1.26245	0.661956	0.201194	1.05375	0.186055	-0.0447309	-0.00744483	0.225458	-0.283691	0	0	0.174465	-0.122957	-0.252318	0.39163	-0.244758	0	0	-0.254359	0.0752474	-0.0630586	0.430671	-0.557548	1.23503	0.670959	0.44481	0	0	0.0285077	-0.288992	0.0978667	0.531498	1.15821	0	0
48.46	0.377766	1.46449	1.25951	0.661979	0.201729	1.054	0.180341	-0.045084	-0.00633656	0.221315	-0.284214	0	0	0.169256	-0.121977	-0.252085	0.388392	-0.245092	0	0	-0.252829	0.0744998	-0.0636367	0.430583	-0.557977	1.23464	0.670442	0.445523	0	0	0.0279493	-0.288672	0.0942324	0.530833	1.15903	0	0
48.47	0.382209	1.46684	1.25531	0.662042	0.202176	1.05424	0.174974	-0.044942	-0.00383595	0.21674	-0.284873	0	0	0.165068	-0.121515	-0.252243	0.386256	-0.24536	0	0	-0.251415	0.074015	-0.0642253	0.43083	-0.558497	1.23451	0.670133	0.446796	0	0	0.0275435	-0.288158	0.0903702	0.530041	1.15973	0	0
48.48	0.384941	1.46887	1.25268	0.662101	0.202595	1.05445	0.170637	-0.044898	-0.00119835	0.213339	-0.285477	0	0	0.161683	-0.121009	-0.252225	0.384807	-0.245571	0	0	-0.250033	0.0734324	-0.0648418	0.430798	-0.558885	1.23341	0.669914	0.446967	0	0	0.0270756	-0.287617	0.0868234	0.529272	1.16003	0	0
48.49	0.387165	1.47135	1.25078	0.662131	0.203015	1.0547	0.16716	-0.0453633	0.000137181	0.212914	-0.285549	0	0	0.15802	-0.120273	-0.251861	0.383511	-0.245802	0	0	-0.249079	0.0727336	-0.0657457	0.430703	-0.559281	1.23227	0.669919	0.446757	0	0	0.0266824	-0.28704	0.0837498	0.528163	1.16	0	0
48.5	0.388806	1.47369	1.24971	0.662128	0.203339	1.05494	0.164286	-0.0459443	0.00103518	0.213248	-0.285242	0	0	0.154965	-0.119582	-0.25143	0.382746	-0.246112	0	0	-0.248359	0.0721762	-0.0669144	0.430951	-0.55992	1.2316	0.670344	0.446648	0	0	0.0265187	-0.286344	0.0809341	0.526875	1.16003	0	0
48.51	0.391472	1.4758	1.24767	0.662141	0.203578	1.05517	0.161713	-0.0463104	0.00193899	0.213425	-0.284777	0	0	0.152592	-0.119224	-0.251293	0.38275	-0.246436	0	0	-0.247776	0.071841	-0.0681694	0.431528	-0.560613	1.23139	0.670876	0.44654	0	0	0.0264303	-0.285587	0.07839	0.525591	1.16019	0	0
48.52	0.39448	1.4775	1.24516	0.662168	0.203755	1.05538	0.159311	-0.0464047	0.00327621	0.212714	-0.284438	0	0	0.151015	-0.119139	-0.251449	0.383381	-0.246759	0	0	-0.247207	0.0716251	-0.0693473	0.432242	-0.561239	1.23118	0.671312	0.446272	0	0	0.0263138	-0.284789	0.0761575	0.524445	1.16071	0	0
48.53	0.396712	1.47869	1.24332	0.662201	0.203821	1.05556	0.157296	-0.0463082	0.00514686	0.211223	-0.2844	0	0	0.150345	-0.119206	-0.251672	0.384474	-0.247086	0	0	-0.246651	0.0715812	-0.0704451	0.433	-0.561989	1.23107	0.672147	0.445691	0	0	0.0263674	-0.283899	0.0743181	0.52337	1.16158	0	0
48.54	0.399177	1.47969	1.24148	0.662242	0.203815	1.05572	0.15608	-0.046292	0.00642266	0.210995	-0.284433	0	0	0.150066	-0.119457	-0.252144	0.385714	-0.247447	0	0	-0.246205	0.0716705	-0.071657	0.433894	-0.562838	1.23137	0.673156	0.445103	0	0	0.0265705	-0.283027	0.0729189	0.522389	1.16262	0	0
48.55	0.401585	1.48053	1.23985	0.662282	0.20376	1.05584	0.155762	-0.0463966	0.00669761	0.21236	-0.284247	0	0	0.150116	-0.119853	-0.252863	0.387086	-0.247862	0	0	-0.245718	0.0718207	-0.0730709	0.434837	-0.563642	1.23173	0.674132	0.44419	0	0	0.0266766	-0.282231	0.071961	0.521563	1.16384	0	0
48.56	0.405087	1.4813	1.23709	0.66234	0.2037	1.05592	0.155912	-0.0464786	0.00610649	0.214712	-0.283711	0	0	0.15063	-0.120542	-0.253795	0.3895	-0.248047	0	0	-0.245252	0.0721064	-0.0744666	0.435804	-0.564413	1.23261	0.67506	0.44331	0	0	0.0265618	-0.281482	0.0714109	0.520928	1.16508	0	0
48.57	0.409183	1.48186	1.2338	0.662419	0.203605	1.05596	0.1565	-0.0464797	0.0049954	0.217569	-0.282802	0	0	0.151395	-0.121504	-0.255255	0.391999	-0.248093	0	0	-0.244864	0.0725409	-0.0759332	0.436898	-0.565099	1.23407	0.675945	0.442601	0	0	0.0263831	-0.280751	0.0711538	0.520515	1.16615	0	0
48.58	0.412263	1.4821	1.23124	0.66248	0.203452	1.05598	0.156585	-0.0463207	0.00473207	0.218136	-0.282008	0	0	0.152715	-0.122306	-0.255919	0.394802	-0.247961	0	0	-0.24457	0.0730204	-0.0771853	0.438254	-0.565863	1.23608	0.676879	0.4421	0	0	0.0262405	-0.279896	0.0711083	0.520282	1.16711	0	0
48.59	0.419116	1.48241	1.22498	0.662553	0.203238	1.05596	0.156847	-0.04591	0.0039282	0.219391	-0.279152	0	0	0.154286	-0.123953	-0.258489	0.398778	-0.246625	0	0	-0.244089	0.0743404	-0.080424	0.44531	-0.566385	1.25258	0.677642	0.428554	0	0	0.0247209	-0.279359	0.0713479	0.520149	1.16574	0	0
48.6	0.424434	1.48253	1.22041	0.662647	0.203035	1.05592	0.157683	-0.0455867	0.00270105	0.221465	-0.27813	0	0	0.155703	-0.125221	-0.259798	0.401559	-0.246189	0	0	-0.244157	0.0750546	-0.0816649	0.446297	-0.567103	1.25374	0.678622	0.427301	0	0	0.0246627	-0.278878	0.0729091	0.520217	1.16503	0	0
48.61	0.42996	1.48276	1.21555	0.662771	0.202823	1.05587	0.158734	-0.0452517	0.00141873	0.224426	-0.277019	0	0	0.157004	-0.12644	-0.260979	0.404466	-0.245625	0	0	-0.244552	0.0757177	-0.0827492	0.446987	-0.567767	1.25414	0.679501	0.425971	0	0	0.0246126	-0.278362	0.074307	0.52044	1.16436	0	0
48.62	0.434272	1.48287	1.21177	0.662914	0.202571	1.0558	0.159477	-0.0448631	0.000528165	0.226197	-0.276242	0	0	0.15843	-0.1275	-0.261903	0.407265	-0.245046	0	0	-0.245049	0.0762615	-0.083595	0.447489	-0.568242	1.25452	0.680052	0.425613	0	0	0.0247315	-0.277806	0.0757704	0.520613	1.16418	0	0
48.63	0.437954	1.48274	1.20853	0.663062	0.202308	1.05571	0.160261	-0.0444152	-0.000227088	0.227421	-0.275445	0	0	0.160234	-0.128634	-0.262997	0.410384	-0.244226	0	0	-0.245605	0.0767604	-0.0842307	0.447813	-0.568538	1.25488	0.680217	0.426343	0	0	0.0249127	-0.277395	0.077839	0.520843	1.16449	0	0
48.64	0.44187	1.48256	1.20493	0.663228	0.202034	1.05562	0.161005	-0.043871	-0.000747566	0.22849	-0.274608	0	0	0.162165	-0.129912	-0.264277	0.413758	-0.243334	0	0	-0.246312	0.077307	-0.084614	0.4481	-0.568864	1.25533	0.680238	0.427598	0	0	0.0252383	-0.276956	0.0800761	0.520914	1.16465	0	0
48.65	0.44455	1.48209	1.20248	0.663406	0.201751	1.05548	0.162379	-0.0434263	-0.00149597	0.230082	-0.273709	0	0	0.164613	-0.13139	-0.265837	0.417521	-0.242469	0	0	-0.246837	0.0778152	-0.0844988	0.447883	-0.569496	1.25541	0.680406	0.428546	0	0	0.0258668	-0.276492	0.0826962	0.520754	1.16502	0	0
48.66	0.44833	1.48171	1.19902	0.663572	0.201385	1.05536	0.163455	-0.0429401	-0.00203222	0.230893	-0.274627	0	0	0.166634	-0.132648	-0.266216	0.420042	-0.243028	0	0	-0.24826	0.078402	-0.0850861	0.448293	-0.569553	1.25578	0.680319	0.429142	0	0	0.0257576	-0.275202	0.079801	0.521661	1.17007	0	0
48.67	0.450361	1.4805	1.19713	0.663776	0.200983	1.05513	0.165651	-0.0421806	-0.00252307	0.232095	-0.273988	0	0	0.170051	-0.134559	-0.268016	0.423914	-0.242438	0	0	-0.248526	0.079102	-0.0850807	0.448369	-0.56969	1.25675	0.679837	0.427518	0	0	0.0261517	-0.274766	0.0818289	0.521847	1.17108	0	0
48.68	0.451472	1.47932	1.19588	0.663986	0.200574	1.05493	0.167609	-0.0414945	-0.00280229	0.232426	-0.273779	0	0	0.17338	-0.136244	-0.269386	0.427711	-0.241762	0	0	-0.248959	0.0796772	-0.0847949	0.448457	-0.569703	1.25758	0.678931	0.425901	0	0	0.0266961	-0.274209	0.0837782	0.521765	1.17207	0	0
48.69	0.452596	1.47849	1.19457	0.664183	0.200206	1.05476	0.169521	-0.0409884	-0.00356977	0.23364	-0.273712	0	0	0.176282	-0.137658	-0.270067	0.431592	-0.240891	0	0	-0.249756	0.0801529	-0.0844096	0.448428	-0.569807	1.25847	0.678086	0.424432	0	0	0.0272358	-0.273668	0.0858107	0.521594	1.17332	0	0
